<?xml version="1.0" standalone="no"?>
<!DOCTYPE svg PUBLIC "-//W3C//DTD SVG 20010904//EN"
 "http://www.w3.org/TR/2001/REC-SVG-20010904/DTD/svg10.dtd">
<svg version="1.0" xmlns="http://www.w3.org/2000/svg"
 width="410.000000pt" height="410.000000pt" viewBox="0 0 410.000000 410.000000"
 preserveAspectRatio="xMidYMid meet">

<g transform="translate(0.000000,410.000000) scale(0.100000,-0.100000)"
fill="#7c1d93" stroke="none">
<path d="M631 3560 c-329 -87 -559 -369 -616 -758 -13 -92 -15 -242 -13 -1092
3 -976 3 -985 24 -1030 26 -57 76 -106 134 -134 l45 -21 1550 -3 c1338 -2
1562 0 1636 13 365 63 615 333 690 745 11 60 14 276 14 1090 0 1008 0 1015
-21 1060 -26 56 -76 107 -129 131 -38 18 -111 19 -1640 18 -1547 0 -1602 -1
-1674 -19z m3227 -212 c19 -19 17 -1890 -3 -2018 -27 -182 -84 -301 -194 -411
-86 -86 -167 -131 -279 -154 -99 -22 -3124 -22 -3141 -1 -9 10 -11 267 -8
1017 3 1002 3 1004 25 1088 69 258 230 427 454 476 87 19 3127 22 3146 3z fill=#7c1d93"/>
<path d="M1000 2395 l0 -135 1055 0 1055 0 0 135 0 135 -1055 0 -1055 0 0
-135z"/>
<path d="M3122 1730 c-201 -102 -201 -384 0 -484 61 -31 165 -36 224 -11 104
43 170 143 168 255 -1 77 -19 123 -70 180 -53 58 -105 82 -189 87 -63 4 -76 2
-133 -27z fill=#7c1d93"/>
</g>
</svg>
